HIERARCHY
ROOT RootJoint
{
    OFFSET   0.000000   0.000000   0.000000
    CHANNELS 6 Xposition Yposition Zposition Xrotation Yrotation Zrotation
    JOINT pelvis_lowerback
    {
        OFFSET   0.000000   0.093605   0.000000
        CHANNELS 3 Xrotation Yrotation Zrotation
        JOINT lowerback_torso
        {
            OFFSET   0.000000   0.100000   0.000000
            CHANNELS 3 Xrotation Yrotation Zrotation
            JOINT torso_head
            {
                OFFSET   0.000000   0.282350   0.000000
                CHANNELS 3 Xrotation Yrotation Zrotation
                End Site
                {
                    OFFSET   0.000000   0.192650   0.000000
                }
            }
            JOINT rTorso_Clavicle
            {
                OFFSET  -0.001000   0.157500   0.000000
                CHANNELS 3 Xrotation Yrotation Zrotation
                JOINT rShoulder
                {
                    OFFSET  -0.117647   0.000000   0.000000
                    CHANNELS 3 Xrotation Yrotation Zrotation
                    JOINT rElbow
                    {
                        OFFSET  -0.245000   0.000000   0.000000
                        CHANNELS 3 Xrotation Yrotation Zrotation
                        JOINT rWrist
                        {
                            OFFSET  -0.240000   0.000000   0.000000
                            CHANNELS 3 Xrotation Yrotation Zrotation
                            End Site
                            {
                                OFFSET  -0.116353  -0.002500   0.000000
                            }
                        }
                    }
                }
            }
            JOINT lTorso_Clavicle
            {
                OFFSET   0.001000   0.157500   0.000000
                CHANNELS 3 Xrotation Yrotation Zrotation
                JOINT lShoulder
                {
                    OFFSET   0.117647   0.000000   0.000000
                    CHANNELS 3 Xrotation Yrotation Zrotation
                    JOINT lElbow
                    {
                        OFFSET   0.245000   0.000000   0.000000
                        CHANNELS 3 Xrotation Yrotation Zrotation
                        JOINT lWrist
                        {
                            OFFSET   0.240000   0.000000   0.000000
                            CHANNELS 3 Xrotation Yrotation Zrotation
                            End Site
                            {
                                OFFSET   0.116353  -0.002500   0.000000
                            }
                        }
                    }
                }
            }
        }
    }
    JOINT rHip
    {
        OFFSET  -0.100000  -0.051395   0.000000
        CHANNELS 3 Xrotation Yrotation Zrotation
        JOINT rKnee
        {
            OFFSET   0.000000  -0.410000   0.000000
            CHANNELS 3 Xrotation Yrotation Zrotation
            JOINT rAnkle
            {
                OFFSET   0.000000  -0.390000   0.000000
                CHANNELS 3 Xrotation Yrotation Zrotation
                JOINT rToeJoint
                {
                    OFFSET   0.000000  -0.050000   0.130000
                    CHANNELS 3 Xrotation Yrotation Zrotation
                    End Site
                    {
                        OFFSET  -0.010000   0.002000   0.060000
                    }
                }
            }
        }
    }
    JOINT lHip
    {
        OFFSET   0.100000  -0.051395   0.000000
        CHANNELS 3 Xrotation Yrotation Zrotation
        JOINT lKnee
        {
            OFFSET   0.000000  -0.410000   0.000000
            CHANNELS 3 Xrotation Yrotation Zrotation
            JOINT lAnkle
            {
                OFFSET   0.000000  -0.390000   0.000000
                CHANNELS 3 Xrotation Yrotation Zrotation
                JOINT lToeJoint
                {
                    OFFSET   0.000000  -0.050000   0.130000
                    CHANNELS 3 Xrotation Yrotation Zrotation
                    End Site
                    {
                        OFFSET   0.010000   0.002000   0.060000
                    }
                }
            }
        }
    }
}
MOTION
Frames: 5
Frame Time:   0.008333
 -2.367096   0.896241   4.913694   1.294570  -2.733474   1.302395   0.981673   5.230479   0.446600  -1.351825   0.450702   1.457961  -3.233902   0.814844   2.512700   2.375346   0.351965   4.480310   7.558050  20.113746  49.572507  -0.001293  20.844723  -0.000139   9.841420   2.215532   3.077056   2.020234   3.109471  -5.957196  14.583751 -14.914040 -54.314705   0.000483 -12.004967  -0.001048   9.798445  -2.333579  -6.453717  16.414025   1.315938  -5.358549  14.956715   0.006024   0.001615  -0.426699   4.292554   1.585196 -44.227794   0.000182   0.001984 -21.095989  -2.023272   0.740596  13.541292   0.004408  -0.004478   0.377396   6.416020   0.612525  -0.095961  -0.000046  -0.000559
 -2.364255   0.897331   4.921800   1.429349  -2.710618   1.455232   0.827788   5.247285   0.222915  -1.366340   0.428097   1.477634  -3.233813   0.848867   2.578365   2.415659   0.348851   4.607760   7.708576  20.066059  49.657788  -0.001519  20.589969   0.000022   9.914977   2.219325   3.143815   1.975415   2.959052  -5.951364  14.465365 -15.044906 -54.185924   0.000403 -11.991323  -0.000853   9.792603  -2.380914  -6.462380  15.896860   1.441462  -5.719643  16.461408   0.008352   0.002168   0.462965   4.406821   1.891588 -44.134288  -0.000047   0.001556 -20.771471  -2.199529   0.306352  13.603479   0.003660  -0.003736   0.592127   6.383428   0.899270  -0.039550  -0.000098  -0.000608
 -2.361531   0.898496   4.929945   1.531093  -2.582645   1.574004   0.675829   5.221129   0.016444  -1.372760   0.374520   1.510986  -3.228110   0.881210   2.641874   2.467679   0.332430   4.725005   7.859619  20.015517  49.746367  -0.001654  20.348039   0.000172   9.987342   2.202520   3.236704   1.917933   2.804227  -5.913137  14.345049 -15.173406 -54.047278   0.000332 -11.985766  -0.000685   9.783421  -2.459355  -6.455414  15.367881   1.562107  -6.009541  18.060728   0.010673   0.003612   1.384931   4.531110   2.188837 -43.518825  -0.001447   0.001355 -20.375642  -2.394692  -0.108625  13.579715   0.002882  -0.002946   0.745217   6.343490   1.184090  -0.002789  -0.000114  -0.000563
 -2.358890   0.899630   4.938128   1.623842  -2.375261   1.671191   0.513807   5.173955  -0.175861  -1.386175   0.300667   1.548618  -3.222702   0.911159   2.700280   2.528640   0.303553   4.830293   8.011074  19.961242  49.831397  -0.001696  20.119003   0.000315  10.057383   2.172380   3.344917   1.854671   2.651747  -5.852641  14.228138 -15.295537 -53.901523   0.000270 -11.983578  -0.000549   9.904048  -2.565888  -6.417474  14.872310   1.681356  -6.248962  19.620983   0.012691   0.005501   2.306996   4.661607   2.473163 -42.388760  -0.003876   0.001924 -19.965978  -2.579025  -0.505174  13.532542   0.002208  -0.002318   0.870229   6.306440   1.452840   0.025012  -0.000112  -0.000484
 -2.356309   0.900683   4.946314   1.717407  -2.114998   1.757715   0.344510   5.118503  -0.359026  -1.410505   0.217984   1.584823  -3.219650   0.939122   2.753721   2.592196   0.268685   4.923983   8.158719  19.905928  49.910017  -0.001664  19.903032   0.000452  10.125072   2.132721   3.456435   1.789153   2.504052  -5.778757  14.116403 -15.410770 -53.752744   0.000217 -11.983262  -0.000439   9.868274  -2.657789  -6.358298  14.413194   1.799288  -6.455914  21.107983   0.014310   0.007386   3.213850   4.796160   2.743166 -40.850162  -0.006736   0.003425 -19.563849  -2.748830  -0.888639  13.484881   0.001667  -0.001848   0.982302   6.273363   1.703262   0.048189  -0.000103  -0.000399
